PathFileType	4	(X/Y/Z)	C:/Users/beibeiliu/ov580/test_trc/User2\sequence.2_training_dense_right.trc
DataRate	CameraRate	NumFrames	NumMarkers	Units	OrigDataRate	OrigDataStartFrame	OrigNumFrames
120	120	18	19	mm	120	116	307
Frame#	Time	ThumbCMC			ThumbMCP			ThumbIP			ThumbTip			IndexMCP			IndexPIP			IndexTip			MiddleMCP			MiddlePIP			MiddleTip			RingMCP			RingPIP			RingTip			PinkyMCP			PinkyPIP			PinkyTip			BackHand1			BackHand2			BackHand3	
		X0	Y0	Z0	X1	Y1	Z1	X2	Y2	Z2	X3	Y3	Z3	X4	Y4	Z4	X5	Y5	Z5	X6	Y6	Z6	X7	Y7	Z7	X8	Y8	Z8	X9	Y9	Z9	X10	Y10	Z10	X11	Y11	Z11	X12	Y12	Z12	X13	Y13	Z13	X14	Y14	Z14	X15	Y15	Z15	X16	Y16	Z16	X17	Y17	Z17	X18	Y18	Z18	
115	0.958333	65.3889	9.78098	67.5832	43.329	-19.7834	52.4184	35.4356	-46.8268	30.6293	52.6155	-65.1172	11.9074	67.8745	-3.95548	-16.0291	50.9556	-34.6721	-23.4054	44.2901	-52.857	8.2922	82.8019	-17.4205	-24.6686	67.5793	-54.0993	-20.1769	60.7148	-57.9892	19.292	102.111	-32.8576	-16.9034	82.5139	-60.3682	-14.8359	76.5389	-67.3168	19.9458	116.172	-41.9712	-5.41586	94.5273	-66.1826	1.7701	86.1918	-65.2043	29.9728	127.829	6.61636	27.8004	134.909	18.1892	56.8105	102.434	29.6366	42.5175	
116	0.966667	65.2915	12.083	65.1778	38.8335	-16.2118	56.5614	25.4135	-45.603	38.4658	37.849	-66.2622	24.8636	61.7688	-11.1186	-11.8966	40.0669	-40.8893	-13.7438	37.1638	-54.1161	20.2238	73.275	-27.3764	-18.749	56.6441	-60.0204	-7.86516	52.3404	-59.7073	30.3976	88.3698	-45.1822	-10.1004	71.0936	-69.7205	-1.65109	62.4301	-68.4638	31.5314	104.419	-52.0824	3.99034	84.0177	-73.8753	12.6814	71.8492	-64.8277	43.3268	121.248	-1.76832	26.1673	133.77	15.711	58.5361	99.8918	29.1149	44.3476	
117	0.975	63.1376	15.4629	67.1638	32.2643	-8.36151	63.4625	20.4051	-38.4795	48.4427	23.4926	-65.2957	34.5259	51.4369	-16.2205	-8.89157	30.7734	-41.1248	-5.15316	23.4521	-49.8911	28.9905	65.5516	-34.5352	-10.666	43.0045	-58.8288	-2.09035	37.2195	-56.6381	39.9843	79.1952	-53.5026	0.0020674	56.4142	-71.7326	11.1804	45.6073	-63.267	46.497	92.2317	-64.4603	15.399	68.218	-77.8421	27.0111	56.3551	-62.8962	56.8997	115.526	-9.25	30.1462	132.309	4.71679	60.3366	97.5361	22.1081	40.4417	
118	0.983333	60.6755	23.972	69.3624	29.4846	-2.03265	64.4549	7.97058	-26.9776	57.8442	9.48869	-55.4401	46.1318	47.8419	-15.4044	-1.91988	22.0933	-38.563	0.477964	9.76784	-41.7853	34.7927	57.5221	-35.929	-1.72115	29.4967	-58.0171	8.03981	24.8964	-52.1904	49.1274	64.4193	-59.1239	9.40319	39.1212	-71.654	26.0882	29.5189	-56.7578	55.1551	80.4731	-64.999	28.2962	49.7018	-77.0088	45.0203	41.1978	-59.6912	65.8295	112.381	-16.073	36.2606	128.165	-1.24756	62.1538	98.3362	18.8615	40.0876	
119	0.991667	59.9737	27.7395	67.9564	25.3123	9.34572	66.9703	2.60559	-14.2024	61.0955	-2.83372	-42.1448	55.3069	42.5253	-13.6915	1.48162	14.5587	-35.3001	6.88003	0.529625	-32.8042	37.8731	45.8375	-38.6586	2.07383	15.4963	-52.5303	16.7823	12.1167	-42.9694	53.4633	52.4499	-53.8115	17.5171	23.4697	-65.0591	33.9158	15.5775	-48.0769	59.2148	66.8409	-66.5981	38.7841	32.6059	-68.4843	51.8281	24.5962	-49.6777	73.6034	103.233	-19.8651	42.4742	121.347	-4.45377	61.7163	94.7347	17.8448	42.3611	
120	1	61.5505	35.0344	65.7903	22.1165	20.35	64.0293	-2.87011	-1.7944	61.3011	-12.0121	-27.4114	58.7165	35.764	-16.7427	3.16657	6.10412	-26.863	7.79141	-7.36503	-22.2141	38.2668	35.9771	-34.9936	5.83081	6.41899	-45.4821	19.4166	-0.306332	-28.1599	56.5069	40.8542	-52.0129	24.7018	11.4957	-57.4629	37.2826	2.85617	-37.7921	65.1676	51.7911	-63.0323	46.7688	20.1721	-62.3866	56.108	9.77255	-38.7807	78.0164	93.7924	-24.4026	43.7098	118.629	-6.94197	67.3829	96.403	13.7928	41.5503	
121	1.00833	63.5501	38.5009	62.505	26.2309	32.9593	65.896	-5.73104	10.3774	59.5439	-18.8114	-12.9284	59.8961	34.8342	-12.7798	6.05592	-0.736631	-18.047	9.57549	-14.1024	-8.05191	40.1531	34.139	-34.7078	12.4556	-2.15438	-36.6547	20.5699	-5.06731	-14.7246	58.4974	31.7437	-50.2772	30.463	0.0776866	-46.6739	43.2639	-5.82344	-20.4911	66.2344	37.8893	-57.3703	51.0946	7.86112	-50.6186	57.819	-1.32256	-27.5758	80.1265	88.2497	-27.6636	49.3318	111.186	-14.7683	71.7366	93.6858	6.91167	44.2723	
122	1.01667	66.0216	42.2037	58.6352	26.811	41.5178	60.7032	-4.60938	24.2484	57.3396	-18.4341	-0.773958	57.6512	29.2921	-8.30089	3.68301	-4.46489	-10.3102	8.7651	-16.858	3.5612	32.8363	28.8441	-28.9827	12.5512	-7.15023	-28.7435	22.0568	-10.4679	-1.86516	54.2915	21.7335	-44.1843	32.6871	-8.27716	-35.0977	42.7567	-10.757	-9.20435	68.0064	26.707	-47.4883	51.5913	-0.131536	-39.9151	58.6062	-6.56953	-14.8312	82.7431	81.9859	-30.8114	52.5046	108.381	-16.7505	76.9158	95.8422	10.0266	44.3624	
123	1.025	71.3747	45.2139	56.7473	29.1034	48.0575	53.4524	-0.30774	36.4617	52.4726	-24.5901	15.4395	53.3659	28.7174	-4.72647	2.68579	-4.40016	-3.03976	4.6408	-17.5765	15.5822	35.8075	22.413	-26.0316	13.7555	-12.8048	-16.5184	22.1722	-12.2457	9.37647	50.5697	14.2094	-37.3453	32.3205	-13.1186	-23.983	41.457	-13.5155	1.10405	64.3763	22.2963	-44.3297	56.2063	-9.59502	-27.7996	63.2262	-12.2809	-2.59403	80.3073	76.9439	-30.1602	56.7757	104.346	-17.3523	76.4993	93.5053	7.34471	45.1468	
124	1.03333	73.2433	43.2365	53.6396	37.3222	52.9259	49.4743	0.769462	45.62	45.9878	-19.1762	25.4879	49.2952	25.9213	-3.19495	1.06497	-5.23414	2.41915	4.25015	-16.3317	24.3748	28.1212	17.2443	-20.1127	9.942	-14.2008	-12.1628	20.2845	-11.4486	17.9519	50.6423	10.9395	-32.5629	34.9525	-16.9458	-18.127	41.5121	-13.9278	13.359	60.7678	13.0771	-38.1803	56.3704	-12.9702	-18.3143	62.0671	-11.3575	7.57682	75.1968	71.0819	-26.4115	56.5589	100.712	-14.843	75.8585	92.3915	6.60734	43.0376	
125	1.04167	78.3025	44.3475	50.299	39.8982	56.3671	42.4511	6.81444	51.8963	38.9302	-17.5001	33.1782	39.5997	31.154	-1.42463	-0.12962	-1.42139	5.47379	-2.56995	-13.6665	29.8344	23.5527	18.89	-20.3899	11.7519	-15.2037	-0.942838	15.7058	-7.41431	25.3496	47.1316	9.99086	-26.1512	30.3362	-18.4251	-9.73415	39.8539	-13.9513	18.4468	54.6365	15.2009	-30.2481	54.2293	-11.8547	-14.7297	55.225	-11.393	13.4066	69.4181	69.9311	-29.62	57.2194	95.8672	-17.9723	77.5174	91.7848	4.0723	42.386	
126	1.05	80.3083	42.1656	47.6165	46.7683	55.7659	38.5485	11.2632	54.5705	29.733	-11.1946	39.0492	32.8777	34.8917	-1.16666	-4.51835	-0.179522	5.22084	-3.61612	-10.9896	28.2019	19.3887	18.3956	-20.3929	7.96292	-12.5756	-1.35264	13.7063	-5.85227	25.5145	41.7009	8.76525	-27.5525	29.1269	-15.3383	-8.71935	32.2282	-12.8696	21.6077	53.0493	13.627	-30.7123	53.1843	-13.8611	-11.307	54.9549	-9.91661	18.6466	64.3902	70.3912	-27.4915	54.3553	95.8144	-21.0079	78.82	94.2786	-0.140403	40.3692	
127	1.05833	85.1943	40.6413	43.3168	50.9741	51.2297	32.9446	18.3252	54.334	24.5965	-7.23242	39.2273	23.9961	37.0551	-6.12418	-4.90953	5.30027	6.1527	-11.7291	-5.59519	31.998	10.7742	24.8681	-19.5355	2.83875	-8.52776	-1.05938	9.18404	-0.265032	28.7799	34.8105	14.3572	-25.6699	22.7965	-14.2744	-6.10645	27.7263	-9.98468	20.9099	45.6633	10.905	-31.3613	47.3071	-11.7527	-6.44356	47.9029	-7.69253	20.9743	60.2099	69.1824	-29.5171	54.9923	98.2327	-17.6498	78.5725	96.5763	-1.78023	44.6555	
128	1.06667	92.4646	42.0309	39.966	59.8916	53.4559	28.6745	24.7496	52.0261	16.97	-3.34707	37.329	13.955	45.1665	-7.41532	-11.9629	15.2989	-0.550757	-16.2572	1.79117	26.6247	2.24312	33.4632	-21.859	0.66555	-1.14532	-1.76513	-1.35817	5.78923	28.3046	26.2692	19.0108	-27.536	16.1566	-7.52343	-7.72345	17.9689	-2.56459	22.9538	36.0467	15.5168	-32.4045	42.9371	-5.50641	-10.9007	37.3165	-0.736492	16.9433	48.2209	71.9231	-30.0861	52.5134	99.0891	-22.8854	77.2259	101.487	-2.98906	43.4221	
129	1.075	95.5817	36.6478	36.9934	64.9597	49.2627	20.5101	32.009	51.0197	6.25109	5.52692	36.7883	4.74672	51.6906	-13.2776	-15.5419	25.0223	-2.75955	-25.1607	10.4674	23.6598	-6.21304	39.6022	-25.9018	-8.05576	6.81532	-7.18436	-7.11303	13.598	26.4006	15.7872	28.8942	-31.1632	11.9381	1.92762	-15.7998	9.19287	2.74106	18.8301	27.7613	28.439	-32.8883	36.5609	-0.963358	-11.95	32.2426	4.354	15.1483	45.2937	79.8167	-30.7358	50.4413	104.433	-19.5539	75.9914	108.699	-5.06133	38.9059	
130	1.08333	104.893	34.723	35.3733	72.0124	47.1762	12.4827	40.4294	42.9368	-1.42154	16.3647	29.6814	-2.59811	66.6271	-16.3257	-19.5015	38.4398	-6.89157	-32.3796	20.3018	17.2435	-13.6111	48.5332	-31.8914	-9.98098	19.029	-10.7718	-14.7688	20.483	18.9731	7.08633	38.0882	-36.1806	7.32466	12.0793	-17.7484	0.871916	11.5985	15.698	17.2938	36.1411	-35.8627	27.938	10.0948	-20.3538	21.9673	11.9427	12.5437	33.2509	89.1137	-32.1868	46.4263	107.099	-23.6537	76.5652	114.435	-7.52156	38.2489	
131	1.09167	111.991	31.3909	29.9987	84.202	44.7566	10.6752	50.7591	40.2482	-10.9127	28.5955	25.8683	-14.0546	84.4055	-18.1929	-25.3726	53.6545	-14.5573	-39.2334	35.8962	13.8136	-26.8157	67.5371	-34.9669	-13.3226	33.3506	-16.5217	-23.6871	31.3156	13.8362	1.54599	53.5584	-40.7883	2.54347	26.2256	-25.1013	-8.68849	22.7102	8.37706	8.65929	48.8539	-42.3686	22.9626	22.6415	-23.2152	11.2731	20.2214	4.74516	22.3141	99.3516	-32.2915	45.6962	115.872	-26.2145	70.0974	124.122	-10.3949	34.8612	
132	1.1	124.277	36.3011	28.3016	94.9754	43.1137	3.64472	64.649	34.3495	-20.0392	43.9615	17.7291	-22.1536	99.2708	-23.9266	-25.2083	70.965	-21.6516	-42.6643	50.0155	10.8056	-34.4353	87.523	-37.9915	-21.503	50.7286	-24.5303	-32.9729	43.0646	5.311	-11.4636	69.9826	-45.5353	-5.37392	45.0865	-33.6308	-18.674	38.1669	1.68638	-5.00405	65.0782	-46.8318	19.1754	38.5742	-29.9159	0.139042	36.1927	-3.27691	9.95361	111.552	-36.3924	44.761	124.258	-24.38	73.5505	139.254	-7.8626	37.3327	
